<?xml version="1.0" standalone="no"?>
<!DOCTYPE svg PUBLIC "-//W3C//DTD SVG 20010904//EN"
 "http://www.w3.org/TR/2001/REC-SVG-20010904/DTD/svg10.dtd">
<svg version="1.0" xmlns="http://www.w3.org/2000/svg"
 width="512.000000pt" height="512.000000pt" viewBox="0 0 512.000000 512.000000"
 preserveAspectRatio="xMidYMid meet">
<metadata>
Created by potrace 1.11, written by Peter Selinger 2001-2013
</metadata>
<g transform="translate(0.000000,512.000000) scale(0.100000,-0.100000)"
fill="#000000" stroke="none">
<path d="M2220 5104 c-461 -63 -928 -264 -1286 -554 -101 -83 -281 -263 -364
-364 -274 -338 -465 -763 -540 -1202 -29 -170 -29 -668 0 -838 75 -439 266
-864 540 -1202 83 -101 263 -281 364 -364 362 -294 830 -494 1299 -555 156
-20 488 -20 644 0 469 61 937 261 1299 555 101 83 281 263 364 364 294 362
494 830 555 1299 20 156 20 488 0 644 -61 469 -261 937 -555 1299 -83 101
-263 281 -364 364 -362 294 -830 494 -1299 555 -150 19 -510 19 -657 -1z m155
-1281 c-3 -21 -72 -380 -152 -798 -127 -663 -146 -776 -151 -888 -5 -141 6
-189 55 -248 46 -54 97 -73 193 -73 71 0 95 5 143 27 80 37 129 78 182 152
110 154 131 231 290 1059 75 386 140 725 146 754 l10 52 330 0 c310 0 330 -1
325 -17 -3 -10 -111 -569 -241 -1243 -130 -674 -238 -1233 -241 -1242 -5 -17
-30 -18 -335 -18 l-331 0 6 28 c33 154 62 312 57 305 -4 -4 -24 -34 -45 -65
-77 -115 -219 -229 -354 -284 -132 -53 -323 -69 -467 -39 -213 45 -365 197
-410 410 -17 80 -20 279 -5 375 5 36 85 453 177 927 l168 863 329 0 328 0 -7
-37z"/>
</g>
</svg>
